<svg width="200" height="1106" xmlns="http://www.w3.org/2000/svg" xmlns:xlink="http://www.w3.org/1999/xlink">

    <rect height="1106" width="200" fill="none"/> 

    <defs>
        <pattern id="strips" x="0" y="0" width="5" height="20" patternUnits="userSpaceOnUse">
            <rect x="2" width="1" height="20"/>
        </pattern>
  
    </defs>
    
    <path d="M49.5,1060 h101 v-623 l-17.5,-66 v-122 l-14,-93 v-45 l-19,-28 l-19,28 v45 l-14,93 v122 l-17.5,66 v549 Z" fill="#fff" stroke="#000" stroke-width="2"/>

    <rect fill="url(#strips)" y="437" x="50" stroke="#000" width="100" height="35"/>
    

    <rect fill="url(#strips)" y="259" x="67.5" stroke="#000" width="65" height="20"/>
    <rect fill="url(#strips)" y="350.5" x="67.5" stroke="#000" width="65" height="20"/>

    <rect fill="url(#strips)" y="995" x="50" stroke="#000" width="100" height="65"/>
    <rect x="50" y="990" width="100" height="5" stroke="#000" fill="none"/>
    <rect x="50" y="930" width="100" height="5" stroke="#000" fill="none"/>
    <rect fill="url(#strips)" y="865" x="50" stroke="#000" width="100" height="65"/>
    <path d="M50,850 h100 v210 h-10 v-195 h-40 v195 h-30 v-195 h-20" fill="#000"/>    

    <rect x="50" y="685" width="100" height="5" stroke="#000" fill="none"/>
    <rect fill="url(#strips)" y="690" x="50" stroke="#000" width="100" height="35"/>
    <rect x="50" y="725" width="100" height="5" stroke="#000" fill="none"/>
    <path d="M50,610 h100 v120 h-10 v-105 h-40 v105 h-30 v-105 h-20" fill="#000"/>
    <rect fill="url(#strips)" y="605" x="50" stroke="#000" width="100" height="5"/>

    <rect width="66" height="10" x="67" y="249" fill="#000"/>
    <rect width="40" height="2" x="80" fill="#000" y="154"/>
    <rect width="40" height="2" x="80" fill="#000" y="111"/>

    <rect width="5" height="111.5" y="259" x="77.5" fill="#fff" stroke="#000" stroke-width="1"/>

    <path d="M100,990 l25,80 h-50 Z" fill="#fff" stroke="#000" stroke-width="2"/>
    <path d="M150.5,990 l25,80 h-25 Z" fill="#fff" stroke="#000" stroke-width="2"/>
    <path d="M49.5,990 l-25,80 h25 Z" fill="#fff" stroke="#000" stroke-width="2"/>

    <path d="M67,371 l-17.5,66 h15 l9,-33 h53 l9,33 h15 l-9,-33 h-15 l-9,-33" fill="#000"/>
</svg>