<svg width="100" height="100" xmlns="http://www.w3.org/2000/svg" xmlns:xlink="http://www.w3.org/1999/xlink">
    <defs>
        <clipPath id="earth">
            <circle cx="50" cy="50" r="45" />
        </clipPath>  
    </defs>

    <circle cx="50" cy="50" r="50" fill="rgba(49,91,132,.3)"/>
    <circle cx="50" cy="50" r="45" fill="rgba(49,91,132,1)"/>

    <g clip-path="url(#earth)" fill="green">
        <path d="M54,53 l-5,10 3,8 8,1 3,8 1,10 8,5 5,-10 2,-10 5,-6 -5,-5 -3,-7 -10,-4"/>
        <path d="M56,46 l6,-9 -6,-1 1,-4 11,3 6,-9 -9,5 -2,-4 13,-14 18,16 3,38 -14,-8 -4,-10 -5,4 -3,-3 4,-5 -11,3"/>
        <path d="M27,9 l2,8 6,1 0,3 -7,-1 -2,6 6,2 6,-1 -3,9 -9,6 1,10 -5,-4 -6,3 5,5 7,6 6,10 -12,15 -6,-3 -1,-15 2,-9 -6,-8 -1,-7 -14,-7"/>
        <path d="M33,6 l1,4 4,2 3,9 7,-7 1,-10 -10,-3"/>
    </g>
</svg>