<svg width="200" height="423" xmlns="http://www.w3.org/2000/svg" xmlns:xlink="http://www.w3.org/1999/xlink">
    <!--423-->
    <defs>
        <pattern id="strips" x="0" y="0" width="5" height="20" patternUnits="userSpaceOnUse">
            <rect x="2" width="1" height="20"/>
        </pattern>
        <g id="r1">
            <path d="M10,1 l3,12 c-7,11 -11,26 -12,40 c10,2.5 27,2.5 35,0 c-2,-16 -6,-31 -13,-40 l3,-12 Z" fill="#686868" stroke="#000" stroke-width="2"/>
        </g>
    </defs>

    <use href="#r1" y="367" x="81.5"/>
    <use href="#r1" y="367" x="41.5"/>
    <use href="#r1" y="367" x="121.5"/>
            
    <path d="M49.5,377 h101 v-376 h-101 Z" fill="#fff" stroke="#000" stroke-width="2"/>

    <rect fill="url(#strips)" y="312" x="50" stroke="#000" width="100" height="65"/>
    <rect x="50" y="307" width="100" height="5" stroke="#000" fill="none"/>
    <rect x="50" y="247" width="100" height="5" stroke="#000" fill="none"/>
    <rect fill="url(#strips)" y="182" x="50" stroke="#000" width="100" height="65"/>
    <path d="M50,167 h100 v210 h-10 v-195 h-40 v195 h-30 v-195 h-20" fill="#000"/>    

    <rect x="50" y="2" width="100" height="5" stroke="#000" fill="none"/>
    <rect fill="url(#strips)" y="7" x="50" stroke="#000" width="100" height="35"/>
    <rect x="50" y="42" width="100" height="5" stroke="#000" fill="none"/>

    <path d="M100,305 l25,80 h-50 Z" fill="#fff" stroke="#000" stroke-width="2"/>
    <path d="M150.5,305 l25,80 h-25 Z" fill="#fff" stroke="#000" stroke-width="2"/>
    <path d="M49.5,305 l-25,80 h25 Z" fill="#fff" stroke="#000" stroke-width="2"/>

    <rect width="30" height="47" fill="#000" x="70"/>
    <rect width="11" height="47" fill="#000" x="140"/>

</svg>