<svg width="200" height="246" xmlns="http://www.w3.org/2000/svg" xmlns:xlink="http://www.w3.org/1999/xlink">
    <!--189-->
    <defs>
        <pattern id="strips" x="0" y="0" width="5" height="20" patternUnits="userSpaceOnUse">
            <rect x="2" width="1" height="20"/>
        </pattern>
        <g id="r2">
            <path d="M7,1 l0,5 c-4,8 -6,17 -6,25.5 c5,2 16,2 19,0 c0,-8.5 -2,-17.5 -7,-25.5 l0,-5 Z" fill="grey" stroke="#000" stroke-width="2"/>
        </g>
    </defs>

    <rect width="101" height="187" x="49.5" y="1" fill="#fff" stroke-width="2" stroke="#000"/>
    <path d="M49.5,188 v1 l15,24 h71 l15,-24 v-1 Z" fill="#B8B8B8" stroke="#000" stroke-width="2"/>
    <rect fill="url(#strips)" x="50" y="1" stroke="#000" width="100" height="35"/>
    <use y="212" x="89.5" href="#r2"/>
    <use y="212" x="65.5" href="#r2"/>
    <use y="212" x="113.5" href="#r2"/>
    <rect fill="url(#strips)" x="50" y="170" stroke="#000" width="100" height="5"/>
    <rect width="101" height="13" fill="#000" y="175" x="49.5"/>
</svg>