<svg width="200" height="170" xmlns="http://www.w3.org/2000/svg" xmlns:xlink="http://www.w3.org/1999/xlink">
    <!--122-->
    <defs>
        <pattern id="strips" x="0" y="0" width="5" height="20" patternUnits="userSpaceOnUse">
            <rect x="2" width="1" height="20"/>
        </pattern>
    </defs>

    <rect x="67" width="66" height="121" fill="#fff" stroke="#000" stroke-width="2"/>
    <path stroke="#000" stroke-width="2" d="M67,121 v1 l15,15 h36 l15,-15 v-1 Z" fill="#B8B8B8"/>
    <path d="M96.5,137 l0,5 c-4,8 -6,17 -6,25.5 c5,2 16,2 19,0 c0,-8.5 -2,-17.5 -7,-25.5 l0,-5 Z" fill="grey" stroke="#000" stroke-width="2"/>
    <rect fill="url(#strips)" y="9" x="67.5" stroke="#000" width="65" height="20"/>
    <rect fill="url(#strips)" y="101.5" x="67.5" stroke="#000" width="65" height="20"/>
    <rect width="5" height="111.5" y="9" x="77.5" fill="#fff" stroke="#000" stroke-width="1"/>
    <rect width="66" height="9" fill="#000" x="67"/>
</svg>