<svg width="500" height="1106" xmlns="http://www.w3.org/2000/svg" xmlns:xlink="http://www.w3.org/1999/xlink">

    <defs>
        <pattern id="strips" x="0" y="0" width="5" height="20" patternUnits="userSpaceOnUse">
            <rect x="2" width="1" height="20"/>
        </pattern>
        <g id="s1">
            <use href="#r1" y="367" x="81.5"/>
            <use href="#r1" y="367" x="41.5"/>
            <use href="#r1" y="367" x="121.5"/>
            
            <path d="M49.5,377 h101 v-376 h-101 Z" fill="#fff" stroke="#000" stroke-width="2"/>

            <rect fill="url(#strips)" y="312" x="50" stroke="#000" width="100" height="65"/>
            <rect x="50" y="307" width="100" height="5" stroke="#000" fill="none"/>
            <rect x="50" y="247" width="100" height="5" stroke="#000" fill="none"/>
            <rect fill="url(#strips)" y="182" x="50" stroke="#000" width="100" height="65"/>
            <path d="M50,167 h100 v210 h-10 v-195 h-40 v195 h-30 v-195 h-20" fill="#000"/>    

            <rect x="50" y="2" width="100" height="5" stroke="#000" fill="none"/>
            <rect fill="url(#strips)" y="7" x="50" stroke="#000" width="100" height="35"/>
            <rect x="50" y="42" width="100" height="5" stroke="#000" fill="none"/>

            <path d="M100,305 l25,80 h-50 Z" fill="#fff" stroke="#000" stroke-width="2"/>
            <path d="M150.5,305 l25,80 h-25 Z" fill="#fff" stroke="#000" stroke-width="2"/>
            <path d="M49.5,305 l-25,80 h25 Z" fill="#fff" stroke="#000" stroke-width="2"/>

            <rect width="30" height="47" fill="#000" x="70"/>
            <rect width="11" height="47" fill="#000" x="140"/>
        </g>
        <g id="f1">
            <rect fill="#fff" x="49.5" width="101" height="59" stroke-width="2" stroke="#000"/>
            <rect width="30" height="59" fill="#000" x="70"/>
            <rect width="10" height="59" fill="#000" x="140"/>
        </g>
        <g id="s2">
            <rect width="101" height="187" x="49.5" fill="#fff" stroke-width="2" stroke="#000"/>
            <path d="M49.5,187 v1 l15,24 h71 l15,-24 v-1 Z" fill="#B8B8B8" stroke="#000" stroke-width="2"/>
            <rect fill="url(#strips)" x="50" stroke="#000" width="100" height="35"/>

            <use y="211" x="89.5" href="#r2"/>
            <use y="211" x="65.5" href="#r2"/>
            <use y="211" x="113.5" href="#r2"/>

            <rect fill="url(#strips)" x="50" y="169" stroke="#000" width="100" height="5"/>
            <rect width="101" height="13" fill="#000" y="174" x="49.5"/>
        </g>
        <g id="f2">
            <path d="M67,0 l-17.5,66 h101 l-17.5-66Z" fill="#fff" stroke="#000" stroke-width="2"/>
            <path d="M67,0 l-17.5,66 h15 l9,-33 h53 l9,33 h15 l-9,-33 h-15 l-9,-33" fill="#000"/>
        </g>
        <g id="s3">
            <rect x="67" width="66" height="121" fill="#fff" stroke="#000" stroke-width="2"/>
            <path stroke="#000" stroke-width="2" d="M67,121 v1 l15,15 h36 l15,-15 v-1 Z" fill="#B8B8B8"/>
            <use x="89.5" y="136" href="#r2"/>
            <rect fill="url(#strips)" y="9" x="67.5" stroke="#000" width="65" height="20"/>
            <rect fill="url(#strips)" y="101.5" x="67.5" stroke="#000" width="65" height="20"/>
            <rect width="5" height="111.5" y="9" x="77.5" fill="#fff" stroke="#000" stroke-width="1"/>
            <rect width="66" height="9" fill="#000" x="67"/>
        </g>
        <g id="r1">
            <path d="M10,1 l3,12 c-7,11 -11,26 -12,40 c10,2.5 27,2.5 35,0 c-2,-16 -6,-31 -13,-40 l3,-12 Z" fill="#686868" stroke="#000" stroke-width="2"/>
        </g>
        <g id="r2">
            <path d="M7,1 l0,5 c-4,8 -6,17 -6,25.5 c5,2 16,2 19,0 c0,-8.5 -2,-17.5 -7,-25.5 l0,-5 Z" fill="grey" stroke="#000" stroke-width="2"/>
        </g>
        <g id="f3">
            <path d="M81,0 l-14,93 v1 h66 v-1 l-14,-93 Z" stroke="#000" fill="#fff" stroke-width="2"/>
        </g>
        <g id="sm">
            <rect x="81" width="38" height="45" fill="#fff" stroke="#000" stroke-width="2"/>
            <path d="M85,45 l2,2 h8 c-4.5,8 -8,18 -8,25 c8,3 18,3 26,0 c0,-7 -3.5,-17 -8,-25 h8 l2,-2 Z" fill="#686868" stroke="#000" stroke-width="2"/>
        </g>
        <g id="cm">
            <path d="M81,32 h38 v-1 l-16.5,-30 h-5 l-16.5,30 Z" fill="#fff" stroke="#000" stroke-width="2"/>
        </g>
    </defs>

    <use y="79" href="#cm"/>
    <use x="150" y="79" href="#cm"/>
    <use y="111" href="#sm"/>
    <use x="250" y="111" href="#sm"/>
    <use y="250" href="#s3"/>
    <use x="255" y="250" href="#s3"/>
    <use y="371" href="#f2"/>
    <use x="155" y="371" href="#f2"/>
    <use y="438" href="#s2"/>
    <use x="255" y="438" href="#s2"/>
    <use y="625" href="#f1"/>
    <use x="150" y="625" href="#f1"/>
    <use y="683" href="#s1"/>
    <use x="255" y="683" href="#s1"/>
    <use y="156" href="#f3"/>
    <use x="150" y="156" href="#f3"/>


    <path d="M449.5,1060 h101 v-623 l-17.5,-66 v-122 l-14,-93 v-45 l-19,-28 l-19,28 v45 l-14,93 v122 l-17.5,66 v549 Z" fill="none" stroke="#000" stroke-width="2"/>



</svg>